<svg xmlns="http://www.w3.org/2000/svg" version="1.1" xmlns:xlink="http://www.w3.org/1999/xlink" xmlns:svgjs="http://svgjs.dev/svgjs" viewBox="0 0 800 800"><defs><linearGradient x1="50%" y1="0%" x2="50%" y2="100%" id="nnneon-grad"><stop stop-color="hsl(157, 100%, 54%)" stop-opacity="1" offset="0%"></stop><stop stop-color="hsl(331, 87%, 61%)" stop-opacity="1" offset="100%"></stop></linearGradient><filter id="nnneon-filter" x="-100%" y="-100%" width="400%" height="400%" filterUnits="objectBoundingBox" primitiveUnits="userSpaceOnUse" color-interpolation-filters="sRGB">
	<feGaussianBlur stdDeviation="34 18" x="0%" y="0%" width="100%" height="100%" in="SourceGraphic" edgeMode="none" result="blur"></feGaussianBlur></filter><filter id="nnneon-filter2" x="-100%" y="-100%" width="400%" height="400%" filterUnits="objectBoundingBox" primitiveUnits="userSpaceOnUse" color-interpolation-filters="sRGB">
	<feGaussianBlur stdDeviation="9 17" x="0%" y="0%" width="100%" height="100%" in="SourceGraphic" edgeMode="none" result="blur"></feGaussianBlur></filter></defs><g stroke-width="44" stroke="url(#nnneon-grad)" fill="none"><path d="M380.48560337012617 118.54950802722857C392.5611214468307 111.57896010059821 407.4389090707474 111.57896010059821 419.5144271474519 118.55145946841748L633.9856195686126 242.37625722555003C646.0611376453171 249.34680515218042 653.5000314572756 262.23217132226455 653.5000314572756 276.1752186167143V523.8248141309795C653.5000314572756 537.7678614254291 646.0611376453171 550.6532275955133 633.9856195686126 557.6257269633325L419.5144271474519 681.4505247204652C407.4389090707474 688.4210726470955 392.5611214468307 688.4210726470955 380.48560337012617 681.4485732792763L166.01441094896552 557.6237755221437C153.93889287226096 550.6532275955133 146.49999906030263 537.7678614254291 146.49999906030263 523.8248141309795V276.1752186167143C146.49999906030263 262.23217132226455 153.93889287226096 249.34680515218042 166.01441094896552 242.37430578436124L380.48560337012617 118.54950802722857Z " filter="url(#nnneon-filter)"></path><path d="M538.4856033701262 118.54950802722857C550.5611214468307 111.57896010059821 565.4389090707474 111.57896010059821 577.5144271474519 118.55145946841748L791.9856195686126 242.37625722555003C804.0611376453171 249.34680515218042 811.5000314572756 262.23217132226455 811.5000314572756 276.1752186167143V523.8248141309795C811.5000314572756 537.7678614254291 804.0611376453171 550.6532275955133 791.9856195686126 557.6257269633325L577.5144271474519 681.4505247204652C565.4389090707474 688.4210726470955 550.5611214468307 688.4210726470955 538.4856033701262 681.4485732792763L324.0144109489655 557.6237755221437C311.93889287226096 550.6532275955133 304.4999990603026 537.7678614254291 304.4999990603026 523.8248141309795V276.1752186167143C304.4999990603026 262.23217132226455 311.93889287226096 249.34680515218042 324.0144109489655 242.37430578436124L538.4856033701262 118.54950802722857Z " filter="url(#nnneon-filter2)" opacity="0.28"></path><path d="M222.48560337012617 118.54950802722857C234.56112144683073 111.57896010059821 249.4389090707474 111.57896010059821 261.5144271474519 118.55145946841748L475.9856195686126 242.37625722555003C488.0611376453171 249.34680515218042 495.50003145727555 262.23217132226455 495.50003145727555 276.1752186167143V523.8248141309795C495.50003145727555 537.7678614254291 488.0611376453171 550.6532275955133 475.9856195686126 557.6257269633325L261.5144271474519 681.4505247204652C249.4389090707474 688.4210726470955 234.56112144683073 688.4210726470955 222.48560337012617 681.4485732792763L8.01441094896552 557.6237755221437C-4.061107127739035 550.6532275955133 -11.500000939697372 537.7678614254291 -11.500000939697372 523.8248141309795V276.1752186167143C-11.500000939697372 262.23217132226455 -4.061107127739035 249.34680515218042 8.01441094896552 242.37430578436124L222.48560337012617 118.54950802722857Z " filter="url(#nnneon-filter2)" opacity="0.28"></path><path d="M380.48560337012617 118.54950802722857C392.5611214468307 111.57896010059821 407.4389090707474 111.57896010059821 419.5144271474519 118.55145946841748L633.9856195686126 242.37625722555003C646.0611376453171 249.34680515218042 653.5000314572756 262.23217132226455 653.5000314572756 276.1752186167143V523.8248141309795C653.5000314572756 537.7678614254291 646.0611376453171 550.6532275955133 633.9856195686126 557.6257269633325L419.5144271474519 681.4505247204652C407.4389090707474 688.4210726470955 392.5611214468307 688.4210726470955 380.48560337012617 681.4485732792763L166.01441094896552 557.6237755221437C153.93889287226096 550.6532275955133 146.49999906030263 537.7678614254291 146.49999906030263 523.8248141309795V276.1752186167143C146.49999906030263 262.23217132226455 153.93889287226096 249.34680515218042 166.01441094896552 242.37430578436124L380.48560337012617 118.54950802722857Z "></path></g></svg>